<?xml version="1.0" encoding="UTF-8"?>
<!DOCTYPE svg PUBLIC "-//W3C//DTD SVG 1.1//EN" "http://www.w3.org/Graphics/SVG/1.1/DTD/svg11.dtd">
<svg xmlns="http://www.w3.org/2000/svg" version="1.1" width="160px" height="160px" style="shape-rendering:geometricPrecision; text-rendering:geometricPrecision; image-rendering:optimizeQuality; fill-rule:evenodd; clip-rule:evenodd" xmlns:xlink="http://www.w3.org/1999/xlink">
<g><path style="opacity:1" fill="#d32ab2" d="M 2.5,-0.5 C 13.1667,-0.5 23.8333,-0.5 34.5,-0.5C 34.6664,7.50694 34.4997,15.5069 34,23.5C 31.6857,24.7332 29.5191,26.0666 27.5,27.5C 26.5084,27.3284 25.8417,27.6618 25.5,28.5C 22.6749,29.1434 20.1749,30.4767 18,32.5C 16.5054,30.8368 14.672,29.8368 12.5,29.5C 9.6512,27.1498 6.48453,25.1498 3,23.5C 2.50029,15.5069 2.33362,7.50694 2.5,-0.5 Z"/></g>
<g><path style="opacity:1" fill="#b2e3ca" d="M 41.5,-0.5 C 64.5,-0.5 87.5,-0.5 110.5,-0.5C 108.18,0.418466 106.013,1.7518 104,3.5C 103.51,4.79323 103.343,6.12656 103.5,7.5C 101.266,7.61986 99.0989,7.28652 97,6.5C 92.5463,7.49337 88.0463,8.16004 83.5,8.5C 84.2436,11.9496 82.9103,13.6162 79.5,13.5C 77.8333,13.5 76.1667,13.5 74.5,13.5C 74.5,16.8333 74.5,20.1667 74.5,23.5C 77.6981,22.9644 80.3647,23.631 82.5,25.5C 77.9662,24.6555 73.4662,24.6555 69,25.5C 68.5,25.3333 68,25.1667 67.5,25C 70.0756,23.6166 69.7423,22.7833 66.5,22.5C 59.4364,23.5795 52.4364,24.9129 45.5,26.5C 44.3226,24.2157 42.6559,23.8823 40.5,25.5C 39.9094,24.8485 39.2427,24.1818 38.5,23.5C 41.0095,15.7339 42.0095,7.7339 41.5,-0.5 Z"/></g>
<g><path style="opacity:1" fill="#b3e0c6" d="M 119.5,-0.5 C 132.833,-0.5 146.167,-0.5 159.5,-0.5C 159.5,3.16667 159.5,6.83333 159.5,10.5C 154.493,10.7509 149.493,11.0843 144.5,11.5C 145.5,14.8333 146.5,18.1667 147.5,21.5C 145.983,21.5106 144.816,22.1772 144,23.5C 141.135,21.485 137.968,20.1516 134.5,19.5C 134.5,17.8333 134.5,16.1667 134.5,14.5C 135.72,12.7163 135.72,11.0496 134.5,9.5C 134.5,7.5 134.5,5.5 134.5,3.5C 133.167,3.5 131.833,3.5 130.5,3.5C 125.808,4.48757 122.141,3.15423 119.5,-0.5 Z"/></g>
<g><path style="opacity:1" fill="#fefefe" d="M 10.5,3.5 C 16.0778,3.52468 17.4111,5.69135 14.5,10C 17.5203,13.7445 16.5203,15.9111 11.5,16.5C 9.89273,16.363 8.55939,15.6964 7.5,14.5C 9.10822,13.7579 10.7749,13.5913 12.5,14C 12.9574,13.586 13.2907,13.086 13.5,12.5C 9.66465,11.0035 9.66465,10.0035 13.5,9.5C 13.5599,5.67269 12.3932,5.00603 10,7.5C 8.07003,5.92289 8.23669,4.58956 10.5,3.5 Z"/></g>
<g><path style="opacity:1" fill="#fefefe" d="M 18.5,3.5 C 24.3354,2.59042 28.3354,4.75709 30.5,10C 28.4439,15.5312 24.4439,17.6979 18.5,16.5C 18.5,12.1667 18.5,7.83333 18.5,3.5 Z"/></g>
<g><path style="opacity:1" fill="#fdb365" d="M 115.5,-0.5 C 116.833,-0.5 118.167,-0.5 119.5,-0.5C 122.141,3.15423 125.808,4.48757 130.5,3.5C 131.865,5.5909 132.532,7.92423 132.5,10.5C 129.5,10.5 126.5,10.5 123.5,10.5C 123.657,9.12656 123.49,7.79323 123,6.5C 120.747,3.68979 118.247,1.35645 115.5,-0.5 Z"/></g>
<g><path style="opacity:1" fill="#d627b3" d="M 21.5,5.5 C 27.6426,6.02621 28.9759,8.85954 25.5,14C 24.2068,14.49 22.8734,14.6567 21.5,14.5C 21.5,11.5 21.5,8.5 21.5,5.5 Z"/></g>
<g><path style="opacity:1" fill="#f6933f" d="M 110.5,-0.5 C 112.167,-0.5 113.833,-0.5 115.5,-0.5C 118.247,1.35645 120.747,3.68979 123,6.5C 123.49,7.79323 123.657,9.12656 123.5,10.5C 126.5,10.5 129.5,10.5 132.5,10.5C 132.532,7.92423 131.865,5.5909 130.5,3.5C 131.833,3.5 133.167,3.5 134.5,3.5C 134.5,5.5 134.5,7.5 134.5,9.5C 134.389,10.1174 134.056,10.6174 133.5,11C 125.895,12.4652 118.228,13.2985 110.5,13.5C 110.5,14.8333 110.5,16.1667 110.5,17.5C 114.846,17.6657 119.179,17.499 123.5,17C 126.699,14.7232 130.365,13.8898 134.5,14.5C 134.5,16.1667 134.5,17.8333 134.5,19.5C 137.968,20.1516 141.135,21.485 144,23.5C 144.816,22.1772 145.983,21.5106 147.5,21.5C 151.187,19.6571 155.187,18.9905 159.5,19.5C 159.5,23.8333 159.5,28.1667 159.5,32.5C 158.5,32.5 157.5,32.5 156.5,32.5C 153.873,31.9084 151.206,31.5751 148.5,31.5C 147.081,30.5489 145.415,30.2155 143.5,30.5C 143.664,33.1873 143.497,35.854 143,38.5C 142.502,35.5184 142.335,32.5184 142.5,29.5C 142.5,27.8333 142.5,26.1667 142.5,24.5C 140.833,24.5 139.167,24.5 137.5,24.5C 137.5,25.5 137.5,26.5 137.5,27.5C 130.175,28.7016 122.841,28.7016 115.5,27.5C 115.389,26.8826 115.056,26.3826 114.5,26C 112.19,25.5034 109.857,25.3367 107.5,25.5C 106.908,22.8728 106.575,20.2062 106.5,17.5C 107.139,16.9032 107.472,16.0698 107.5,15C 107.316,13.6244 106.649,12.7911 105.5,12.5C 103.585,12.2155 101.919,12.5489 100.5,13.5C 98.6565,15.2789 97.9898,17.6122 98.5,20.5C 98.8016,23.0593 98.4682,25.3926 97.5,27.5C 96.8333,27.5 96.1667,27.5 95.5,27.5C 95.7947,25.2646 95.4614,23.2646 94.5,21.5C 94.5,18.5 94.5,15.5 94.5,12.5C 91.8333,12.5 89.1667,12.5 86.5,12.5C 86.5,15.8333 86.5,19.1667 86.5,22.5C 85.8999,23.9002 84.8999,24.9002 83.5,25.5C 82.8857,21.8648 82.5524,18.1981 82.5,14.5C 81.209,14.7373 80.209,14.404 79.5,13.5C 82.9103,13.6162 84.2436,11.9496 83.5,8.5C 88.0463,8.16004 92.5463,7.49337 97,6.5C 99.0989,7.28652 101.266,7.61986 103.5,7.5C 103.343,6.12656 103.51,4.79323 104,3.5C 106.013,1.7518 108.18,0.418466 110.5,-0.5 Z"/></g>
<g><path style="opacity:1" fill="#321b13" d="M 100.5,13.5 C 101.01,16.3878 100.344,18.7211 98.5,20.5C 97.9898,17.6122 98.6565,15.2789 100.5,13.5 Z"/></g>
<g><path style="opacity:1" fill="#381505" d="M 105.5,12.5 C 106.649,12.7911 107.316,13.6244 107.5,15C 107.472,16.0698 107.139,16.9032 106.5,17.5C 105.699,15.9582 105.366,14.2915 105.5,12.5 Z"/></g>
<g><path style="opacity:1" fill="#4e240f" d="M 159.5,10.5 C 159.5,13.5 159.5,16.5 159.5,19.5C 155.187,18.9905 151.187,19.6571 147.5,21.5C 146.5,18.1667 145.5,14.8333 144.5,11.5C 149.493,11.0843 154.493,10.7509 159.5,10.5 Z"/></g>
<g><path style="opacity:1" fill="#fac475" d="M 79.5,13.5 C 80.209,14.404 81.209,14.7373 82.5,14.5C 82.5524,18.1981 82.8857,21.8648 83.5,25.5C 83.1667,25.5 82.8333,25.5 82.5,25.5C 80.3647,23.631 77.6981,22.9644 74.5,23.5C 74.5,20.1667 74.5,16.8333 74.5,13.5C 76.1667,13.5 77.8333,13.5 79.5,13.5 Z"/></g>
<g><path style="opacity:1" fill="#7d3008" d="M 134.5,9.5 C 135.72,11.0496 135.72,12.7163 134.5,14.5C 130.365,13.8898 126.699,14.7232 123.5,17C 119.179,17.499 114.846,17.6657 110.5,17.5C 110.5,16.1667 110.5,14.8333 110.5,13.5C 118.228,13.2985 125.895,12.4652 133.5,11C 134.056,10.6174 134.389,10.1174 134.5,9.5 Z"/></g>
<g><path style="opacity:1" fill="#371b10" d="M 94.5,21.5 C 92.0521,22.4731 89.3854,22.8064 86.5,22.5C 86.5,19.1667 86.5,15.8333 86.5,12.5C 89.1667,12.5 91.8333,12.5 94.5,12.5C 94.5,15.5 94.5,18.5 94.5,21.5 Z"/></g>
<g><path style="opacity:1" fill="#97bbab" d="M 34.5,-0.5 C 36.8333,-0.5 39.1667,-0.5 41.5,-0.5C 42.0095,7.7339 41.0095,15.7339 38.5,23.5C 39.2427,24.1818 39.9094,24.8485 40.5,25.5C 38.5512,26.1839 36.8845,27.3506 35.5,29C 32.5,29.6667 29.5,29.6667 26.5,29C 27.056,28.6174 27.3893,28.1174 27.5,27.5C 29.5191,26.0666 31.6857,24.7332 34,23.5C 34.4997,15.5069 34.6664,7.50694 34.5,-0.5 Z"/></g>
<g><path style="opacity:1" fill="#becfae" d="M 94.5,21.5 C 95.4614,23.2646 95.7947,25.2646 95.5,27.5C 93.7096,28.7608 92.0429,30.2608 90.5,32C 92.0589,32.9799 93.7256,33.8133 95.5,34.5C 95.3764,35.1067 95.0431,35.44 94.5,35.5C 91.8333,35.5 89.1667,35.5 86.5,35.5C 85.209,35.7373 84.209,35.404 83.5,34.5C 83.5858,33.5041 83.2524,32.6708 82.5,32C 76.1754,31.5005 69.8421,31.3338 63.5,31.5C 60.3005,29.9238 56.9671,28.4238 53.5,27C 51.9343,26.235 50.6009,26.4017 49.5,27.5C 47.901,27.7678 46.5676,27.4345 45.5,26.5C 52.4364,24.9129 59.4364,23.5795 66.5,22.5C 69.7423,22.7833 70.0756,23.6166 67.5,25C 68,25.1667 68.5,25.3333 69,25.5C 73.4662,24.6555 77.9662,24.6555 82.5,25.5C 82.8333,25.5 83.1667,25.5 83.5,25.5C 84.8999,24.9002 85.8999,23.9002 86.5,22.5C 89.3854,22.8064 92.0521,22.4731 94.5,21.5 Z"/></g>
<g><path style="opacity:1" fill="#94b29f" d="M -0.5,-0.5 C 0.5,-0.5 1.5,-0.5 2.5,-0.5C 2.33362,7.50694 2.50029,15.5069 3,23.5C 6.48453,25.1498 9.6512,27.1498 12.5,29.5C 12.8807,30.9311 13.8807,31.7645 15.5,32C 14.7476,32.6708 14.4142,33.5041 14.5,34.5C 13.7611,34.369 13.0944,34.5357 12.5,35C 13.4158,35.2784 14.0825,35.7784 14.5,36.5C 12.1562,35.0171 9.65616,33.6838 7,32.5C 4.6403,33.78 2.1403,34.4467 -0.5,34.5C -0.5,22.8333 -0.5,11.1667 -0.5,-0.5 Z"/></g>
<g><path style="opacity:1" fill="#b8dec2" d="M 105.5,12.5 C 105.366,14.2915 105.699,15.9582 106.5,17.5C 106.575,20.2062 106.908,22.8728 107.5,25.5C 106.402,26.397 106.402,27.2303 107.5,28C 110.261,28.7218 112.927,28.5552 115.5,27.5C 122.841,28.7016 130.175,28.7016 137.5,27.5C 137.5,26.5 137.5,25.5 137.5,24.5C 139.167,24.5 140.833,24.5 142.5,24.5C 142.5,26.1667 142.5,27.8333 142.5,29.5C 141.833,29.5 141.5,29.8333 141.5,30.5C 135.97,29.1968 130.636,29.5301 125.5,31.5C 119.805,32.7619 114.138,34.4285 108.5,36.5C 112.236,38.0573 116.069,39.3907 120,40.5C 123.457,39.3407 126.957,38.3407 130.5,37.5C 130.863,36.8165 131.196,36.1499 131.5,35.5C 133.292,35.366 134.958,35.6993 136.5,36.5C 137.718,37.1614 139.051,37.8281 140.5,38.5C 136.417,39.3606 132.417,40.5273 128.5,42C 130.167,42.3333 131.833,42.6667 133.5,43C 130.854,45.5775 127.854,46.0775 124.5,44.5C 121.685,45.2455 118.851,45.9121 116,46.5C 112.993,45.021 109.826,44.3543 106.5,44.5C 106.469,41.0412 105.802,37.7079 104.5,34.5C 106.624,33.8506 108.624,33.0173 110.5,32C 105.773,30.9229 101.439,29.4229 97.5,27.5C 98.4682,25.3926 98.8016,23.0593 98.5,20.5C 100.344,18.7211 101.01,16.3878 100.5,13.5C 101.919,12.5489 103.585,12.2155 105.5,12.5 Z"/></g>
<g><path style="opacity:1" fill="#4e2b14" d="M 107.5,25.5 C 109.857,25.3367 112.19,25.5034 114.5,26C 115.056,26.3826 115.389,26.8826 115.5,27.5C 112.927,28.5552 110.261,28.7218 107.5,28C 106.402,27.2303 106.402,26.397 107.5,25.5 Z"/></g>
<g><path style="opacity:1" fill="#924735" d="M 25.5,28.5 C 28.815,30.0312 31.815,31.0312 34.5,31.5C 27.7933,32.2414 21.1266,33.2414 14.5,34.5C 14.4142,33.5041 14.7476,32.6708 15.5,32C 13.8807,31.7645 12.8807,30.9311 12.5,29.5C 14.672,29.8368 16.5054,30.8368 18,32.5C 20.1749,30.4767 22.6749,29.1434 25.5,28.5 Z"/></g>
<g><path style="opacity:1" fill="#d4b1ad" d="M 45.5,26.5 C 46.5676,27.4345 47.901,27.7678 49.5,27.5C 49.5,29.1667 49.5,30.8333 49.5,32.5C 51.9892,32.2978 54.3225,32.7978 56.5,34C 56.2716,34.3988 55.9382,34.5654 55.5,34.5C 46.2314,35.1567 37.2314,36.8233 28.5,39.5C 26.9719,39.4827 26.4719,38.816 27,37.5C 29.8437,35.841 32.3437,33.841 34.5,31.5C 31.815,31.0312 28.815,30.0312 25.5,28.5C 25.8417,27.6618 26.5084,27.3284 27.5,27.5C 27.3893,28.1174 27.056,28.6174 26.5,29C 29.5,29.6667 32.5,29.6667 35.5,29C 36.8845,27.3506 38.5512,26.1839 40.5,25.5C 42.6559,23.8823 44.3226,24.2157 45.5,26.5 Z"/></g>
<g><path style="opacity:1" fill="#dda16a" d="M 63.5,31.5 C 62.7387,32.3909 61.7387,33.0576 60.5,33.5C 59.5713,34.6888 59.238,36.0222 59.5,37.5C 56.8333,38.1667 54.1667,38.8333 51.5,39.5C 51.5,38.5 51.5,37.5 51.5,36.5C 53.3797,36.7709 54.713,36.1042 55.5,34.5C 55.9382,34.5654 56.2716,34.3988 56.5,34C 54.3225,32.7978 51.9892,32.2978 49.5,32.5C 49.5,30.8333 49.5,29.1667 49.5,27.5C 50.6009,26.4017 51.9343,26.235 53.5,27C 56.9671,28.4238 60.3005,29.9238 63.5,31.5 Z"/></g>
<g><path style="opacity:1" fill="#e76113" d="M 63.5,31.5 C 69.8421,31.3338 76.1754,31.5005 82.5,32C 83.2524,32.6708 83.5858,33.5041 83.5,34.5C 75.6892,36.643 67.6892,37.643 59.5,37.5C 59.238,36.0222 59.5713,34.6888 60.5,33.5C 61.7387,33.0576 62.7387,32.3909 63.5,31.5 Z"/></g>
<g><path style="opacity:1" fill="#4e3c2b" d="M 148.5,31.5 C 151.206,31.5751 153.873,31.9084 156.5,32.5C 156.167,33.1667 155.833,33.8333 155.5,34.5C 152.15,34.335 148.817,34.5017 145.5,35C 147.857,36.22 147.524,37.0533 144.5,37.5C 144.5,35.5 144.5,33.5 144.5,31.5C 145.833,31.5 147.167,31.5 148.5,31.5 Z"/></g>
<g><path style="opacity:1" fill="#6a5e47" d="M 141.5,30.5 C 141.5,32.5 141.5,34.5 141.5,36.5C 139.833,36.5 138.167,36.5 136.5,36.5C 134.958,35.6993 133.292,35.366 131.5,35.5C 129.728,33.7104 127.728,32.3771 125.5,31.5C 130.636,29.5301 135.97,29.1968 141.5,30.5 Z"/></g>
<g><path style="opacity:1" fill="#f5c177" d="M 125.5,31.5 C 127.728,32.3771 129.728,33.7104 131.5,35.5C 131.196,36.1499 130.863,36.8165 130.5,37.5C 126.957,38.3407 123.457,39.3407 120,40.5C 116.069,39.3907 112.236,38.0573 108.5,36.5C 114.138,34.4285 119.805,32.7619 125.5,31.5 Z"/></g>
<g><path style="opacity:1" fill="#f6e0c5" d="M 55.5,34.5 C 54.713,36.1042 53.3797,36.7709 51.5,36.5C 51.5,37.5 51.5,38.5 51.5,39.5C 49.9519,39.8212 49.2852,40.8212 49.5,42.5C 48.8333,42.5 48.1667,42.5 47.5,42.5C 45.6431,41.2463 43.6431,41.2463 41.5,42.5C 40.3554,43.7757 40.3554,45.109 41.5,46.5C 40.5373,48.4896 39.204,48.8229 37.5,47.5C 38.7111,46.2798 38.7111,45.1131 37.5,44C 32.5274,42.2291 27.5274,41.7291 22.5,42.5C 20.6672,42.4146 19.3339,41.7479 18.5,40.5C 22.0419,40.8128 25.3752,40.4794 28.5,39.5C 37.2314,36.8233 46.2314,35.1567 55.5,34.5 Z"/></g>
<g><path style="opacity:1" fill="#f7ed7b" d="M 95.5,27.5 C 96.1667,27.5 96.8333,27.5 97.5,27.5C 101.439,29.4229 105.773,30.9229 110.5,32C 108.624,33.0173 106.624,33.8506 104.5,34.5C 105.802,37.7079 106.469,41.0412 106.5,44.5C 103.802,44.4503 101.636,45.4503 100,47.5C 97.4215,46.6314 95.5882,44.9648 94.5,42.5C 97.4989,39.5516 97.1655,38.5516 93.5,39.5C 93.8333,38.1667 94.1667,36.8333 94.5,35.5C 95.0431,35.44 95.3764,35.1067 95.5,34.5C 93.7256,33.8133 92.0589,32.9799 90.5,32C 92.0429,30.2608 93.7096,28.7608 95.5,27.5 Z"/></g>
<g><path style="opacity:1" fill="#e76317" d="M 86.5,35.5 C 89.1667,35.5 91.8333,35.5 94.5,35.5C 94.1667,36.8333 93.8333,38.1667 93.5,39.5C 90.2637,40.2476 87.2637,41.581 84.5,43.5C 81.6474,42.8108 79.1474,41.4775 77,39.5C 75.7147,39.9504 74.548,40.6171 73.5,41.5C 72.6143,40.675 72.281,39.675 72.5,38.5C 77.5364,38.6978 82.2031,37.6978 86.5,35.5 Z"/></g>
<g><path style="opacity:1" fill="#ebb38c" d="M 34.5,31.5 C 32.3437,33.841 29.8437,35.841 27,37.5C 26.4719,38.816 26.9719,39.4827 28.5,39.5C 25.3752,40.4794 22.0419,40.8128 18.5,40.5C 18.5123,37.858 17.179,36.5246 14.5,36.5C 14.0825,35.7784 13.4158,35.2784 12.5,35C 13.0944,34.5357 13.7611,34.369 14.5,34.5C 21.1266,33.2414 27.7933,32.2414 34.5,31.5 Z"/></g>
<g><path style="opacity:1" fill="#da9e62" d="M 142.5,29.5 C 142.335,32.5184 142.502,35.5184 143,38.5C 143.497,35.854 143.664,33.1873 143.5,30.5C 145.415,30.2155 147.081,30.5489 148.5,31.5C 147.167,31.5 145.833,31.5 144.5,31.5C 144.5,33.5 144.5,35.5 144.5,37.5C 145.694,38.7773 147.36,39.4439 149.5,39.5C 152.131,39.6793 154.465,39.0127 156.5,37.5C 155.873,36.5832 155.539,35.5832 155.5,34.5C 155.833,33.8333 156.167,33.1667 156.5,32.5C 157.5,32.5 158.5,32.5 159.5,32.5C 159.5,40.8333 159.5,49.1667 159.5,57.5C 157.901,56.438 156.234,56.438 154.5,57.5C 151.167,57.5 147.833,57.5 144.5,57.5C 143.833,56.8333 143.167,56.1667 142.5,55.5C 141.992,49.0506 141.658,42.7172 141.5,36.5C 141.5,34.5 141.5,32.5 141.5,30.5C 141.5,29.8333 141.833,29.5 142.5,29.5 Z"/></g>
<g><path style="opacity:1" fill="#b6d1b3" d="M 155.5,34.5 C 155.539,35.5832 155.873,36.5832 156.5,37.5C 154.465,39.0127 152.131,39.6793 149.5,39.5C 147.36,39.4439 145.694,38.7773 144.5,37.5C 147.524,37.0533 147.857,36.22 145.5,35C 148.817,34.5017 152.15,34.335 155.5,34.5 Z"/></g>
<g><path style="opacity:1" fill="#d8b9bc" d="M -0.5,51.5 C -0.5,49.8333 -0.5,48.1667 -0.5,46.5C 2.47025,45.4619 5.13692,43.9619 7.5,42C 6.78271,40.469 5.78271,39.1357 4.5,38C 4.83333,37.5 5.16667,37 5.5,36.5C 8.16667,38.5 10.5,40.8333 12.5,43.5C 14.7759,44.2132 17.1093,44.7132 19.5,45C 19.9574,45.414 20.2907,45.914 20.5,46.5C 13.5462,48.7089 6.54623,50.3756 -0.5,51.5 Z"/></g>
<g><path style="opacity:1" fill="#e0c297" d="M 136.5,36.5 C 138.167,36.5 139.833,36.5 141.5,36.5C 141.658,42.7172 141.992,49.0506 142.5,55.5C 141.596,54.791 141.263,53.791 141.5,52.5C 140.167,52.5 138.833,52.5 137.5,52.5C 137.5,51.5 137.5,50.5 137.5,49.5C 141.439,49.8224 142.272,48.489 140,45.5C 139.167,46.3333 138.333,47.1667 137.5,48C 133.384,48.3255 129.384,49.1588 125.5,50.5C 124.614,51.325 124.281,52.325 124.5,53.5C 121.813,53.3359 119.146,53.5026 116.5,54C 112.529,57.0124 108.196,58.1791 103.5,57.5C 104.014,55.6336 104.68,53.8003 105.5,52C 105.355,51.228 105.022,50.5613 104.5,50C 101.149,48.5516 97.8156,48.3849 94.5,49.5C 91.8222,48.0998 88.9889,46.7665 86,45.5C 85.6667,45.8333 85.3333,46.1667 85,46.5C 84.5172,45.552 84.3505,44.552 84.5,43.5C 87.2637,41.581 90.2637,40.2476 93.5,39.5C 97.1655,38.5516 97.4989,39.5516 94.5,42.5C 95.5882,44.9648 97.4215,46.6314 100,47.5C 101.636,45.4503 103.802,44.4503 106.5,44.5C 109.826,44.3543 112.993,45.021 116,46.5C 118.851,45.9121 121.685,45.2455 124.5,44.5C 127.854,46.0775 130.854,45.5775 133.5,43C 131.833,42.6667 130.167,42.3333 128.5,42C 132.417,40.5273 136.417,39.3606 140.5,38.5C 139.051,37.8281 137.718,37.1614 136.5,36.5 Z"/></g>
<g><path style="opacity:1" fill="#fdba83" d="M 47.5,42.5 C 48.1667,42.5 48.8333,42.5 49.5,42.5C 50.5236,44.5116 52.0236,46.1783 54,47.5C 54.8332,50.171 54.3332,52.5043 52.5,54.5C 50.549,54.7733 49.049,54.1066 48,52.5C 47.7305,49.7759 47.2305,47.1092 46.5,44.5C 46.8627,43.8165 47.1961,43.1499 47.5,42.5 Z"/></g>
<g><path style="opacity:1" fill="#fba86e" d="M 83.5,34.5 C 84.209,35.404 85.209,35.7373 86.5,35.5C 82.2031,37.6978 77.5364,38.6978 72.5,38.5C 72.281,39.675 72.6143,40.675 73.5,41.5C 74.548,40.6171 75.7147,39.9504 77,39.5C 79.1474,41.4775 81.6474,42.8108 84.5,43.5C 84.3505,44.552 84.5172,45.552 85,46.5C 85.3333,46.1667 85.6667,45.8333 86,45.5C 88.9889,46.7665 91.8222,48.0998 94.5,49.5C 92.095,49.8664 89.7617,50.5331 87.5,51.5C 85.0847,51.2811 84.0847,49.9477 84.5,47.5C 81.8333,47.8333 79.1667,48.1667 76.5,48.5C 76.6602,50.1992 76.4935,51.8659 76,53.5C 74.6667,54.8333 73.3333,54.8333 72,53.5C 71.4138,50.2714 71.9138,47.2714 73.5,44.5C 68.3925,44.783 67.3925,42.9497 70.5,39C 68.8333,38.3333 67.1667,38.3333 65.5,39C 66.731,40.1827 66.731,41.3493 65.5,42.5C 64.069,42.0234 62.7357,41.3567 61.5,40.5C 61.7093,39.914 62.0426,39.414 62.5,39C 61.2625,38.7679 60.2625,38.2679 59.5,37.5C 67.6892,37.643 75.6892,36.643 83.5,34.5 Z"/></g>
<g><path style="opacity:1" fill="#6ab525" d="M 7.5,55.5 C 4.83333,54.1667 2.16667,54.1667 -0.5,55.5C -0.5,54.8333 -0.5,54.1667 -0.5,53.5C 3.07564,52.5147 6.74231,51.848 10.5,51.5C 10.9118,53.9726 9.91176,55.3059 7.5,55.5 Z"/></g>
<g><path style="opacity:1" fill="#9a2b31" d="M 7.5,55.5 C 6.41303,59.5727 3.74637,61.2394 -0.5,60.5C -0.5,58.8333 -0.5,57.1667 -0.5,55.5C 2.16667,54.1667 4.83333,54.1667 7.5,55.5 Z"/></g>
<g><path style="opacity:1" fill="#feb882" d="M 142.5,57.5 C 143.234,58.7079 143.567,60.0413 143.5,61.5C 141.901,61.2322 140.568,61.5655 139.5,62.5C 138.5,62.5 137.5,62.5 136.5,62.5C 135.833,62.5 135.167,62.5 134.5,62.5C 132.409,62.3184 130.409,62.6518 128.5,63.5C 126.889,62.6798 126.222,61.3464 126.5,59.5C 128.318,57.4197 130.651,56.0864 133.5,55.5C 136.42,56.5856 139.42,57.2523 142.5,57.5 Z"/></g>
<g><path style="opacity:1" fill="#fbe9b5" d="M 142.5,57.5 C 143.167,57.5 143.833,57.5 144.5,57.5C 147.833,57.5 151.167,57.5 154.5,57.5C 157.453,60.5059 157.12,63.0059 153.5,65C 149.566,67.3318 145.566,67.6651 141.5,66C 140.915,64.6976 140.249,63.531 139.5,62.5C 140.568,61.5655 141.901,61.2322 143.5,61.5C 143.567,60.0413 143.234,58.7079 142.5,57.5 Z"/></g>
<g><path style="opacity:1" fill="#fdcb9f" d="M 51.5,66.5 C 49.2181,67.3897 46.8848,67.5564 44.5,67C 43.6634,65.9887 43.33,64.8221 43.5,63.5C 48.9162,62.1191 54.2495,60.9524 59.5,60C 62.1667,61.6667 62.1667,63.3333 59.5,65C 56.5886,64.1358 53.9219,64.6358 51.5,66.5 Z"/></g>
<g><path style="opacity:1" fill="#bfe2c9" d="M 59.5,37.5 C 60.2625,38.2679 61.2625,38.7679 62.5,39C 62.0426,39.414 61.7093,39.914 61.5,40.5C 62.7357,41.3567 64.069,42.0234 65.5,42.5C 66.731,41.3493 66.731,40.1827 65.5,39C 67.1667,38.3333 68.8333,38.3333 70.5,39C 67.3925,42.9497 68.3925,44.783 73.5,44.5C 71.9138,47.2714 71.4138,50.2714 72,53.5C 73.3333,54.8333 74.6667,54.8333 76,53.5C 76.4935,51.8659 76.6602,50.1992 76.5,48.5C 79.1667,48.1667 81.8333,47.8333 84.5,47.5C 84.0847,49.9477 85.0847,51.2811 87.5,51.5C 89.7617,50.5331 92.095,49.8664 94.5,49.5C 97.8156,48.3849 101.149,48.5516 104.5,50C 105.022,50.5613 105.355,51.228 105.5,52C 104.68,53.8003 104.014,55.6336 103.5,57.5C 103.884,59.2926 105.05,60.2926 107,60.5C 112.696,59.701 118.196,58.201 123.5,56C 124.252,55.3292 124.586,54.4959 124.5,53.5C 124.281,52.325 124.614,51.325 125.5,50.5C 129.384,49.1588 133.384,48.3255 137.5,48C 138.333,47.1667 139.167,46.3333 140,45.5C 142.272,48.489 141.439,49.8224 137.5,49.5C 137.5,50.5 137.5,51.5 137.5,52.5C 138.833,52.5 140.167,52.5 141.5,52.5C 141.263,53.791 141.596,54.791 142.5,55.5C 143.167,56.1667 143.833,56.8333 144.5,57.5C 143.833,57.5 143.167,57.5 142.5,57.5C 139.42,57.2523 136.42,56.5856 133.5,55.5C 130.651,56.0864 128.318,57.4197 126.5,59.5C 125.596,60.209 125.263,61.209 125.5,62.5C 122.14,62.3841 118.807,62.0508 115.5,61.5C 111.243,61.7838 108.243,63.7838 106.5,67.5C 106.543,68.4164 106.876,69.0831 107.5,69.5C 107.267,71.0618 106.6,72.3951 105.5,73.5C 105.087,76.3202 106.087,78.3202 108.5,79.5C 110.214,80.7384 112.214,81.405 114.5,81.5C 114.5,83.8333 114.5,86.1667 114.5,88.5C 113.127,88.6567 111.793,88.49 110.5,88C 111.973,87.2904 112.64,86.1238 112.5,84.5C 109.996,85.6392 107.33,86.3059 104.5,86.5C 104.567,87.9587 104.234,89.2921 103.5,90.5C 101.654,92.9164 99.3209,94.5831 96.5,95.5C 92.6173,95.7507 90.6173,97.7507 90.5,101.5C 94.1947,101.65 97.528,100.65 100.5,98.5C 101.222,98.0825 101.722,97.4158 102,96.5C 102.684,97.7839 102.517,98.9505 101.5,100C 103.126,99.8047 104.793,99.8047 106.5,100C 104.809,101.405 102.976,102.572 101,103.5C 100.51,104.793 100.343,106.127 100.5,107.5C 90.5718,107.98 80.7385,107.313 71,105.5C 64.6107,107.194 58.1107,107.861 51.5,107.5C 51.4413,105.278 50.2747,104.278 48,104.5C 45.6013,104.613 43.7679,105.613 42.5,107.5C 36.5,107.5 30.5,107.5 24.5,107.5C 24.5,109.5 24.5,111.5 24.5,113.5C 23.2921,114.234 21.9587,114.567 20.5,114.5C 20.2155,116.415 20.5489,118.081 21.5,119.5C 20.713,121.104 19.3797,121.771 17.5,121.5C 18.1883,116.185 15.855,113.185 10.5,112.5C 9.90174,111.205 9.40174,109.872 9,108.5C 7.33353,109.34 7.16686,108.84 8.5,107C 6.83093,105.331 4.83093,104.498 2.5,104.5C 3.08382,107.285 2.08382,108.952 -0.5,109.5C -0.5,102.5 -0.5,95.5 -0.5,88.5C 3.5,87.8333 5.16667,89.5 4.5,93.5C 7.16667,93.5 9.83333,93.5 12.5,93.5C 12.4125,90.4017 12.9125,90.0684 14,92.5C 14.3333,91.8333 14.6667,91.1667 15,90.5C 15.4652,91.9308 16.2986,93.0975 17.5,94C 16.5509,94.6172 15.7175,94.4506 15,93.5C 14.3013,95.0738 14.6346,96.4071 16,97.5C 18.2002,95.1693 20.2002,95.1693 22,97.5C 23.0178,95.4356 24.3511,95.1023 26,96.5C 27.0588,96.3699 27.8921,95.8699 28.5,95C 27.8333,92.6667 27.1667,90.3333 26.5,88C 26.8333,87.8333 27.1667,87.6667 27.5,87.5C 28.1719,88.9492 28.8386,90.2825 29.5,91.5C 30.1614,92.7175 30.8281,94.0508 31.5,95.5C 32.3142,93.2338 32.8142,90.9005 33,88.5C 35.9302,86.8409 38.9302,86.5076 42,87.5C 42.49,88.7932 42.6567,90.1266 42.5,91.5C 43.5,91.5 44.5,91.5 45.5,91.5C 46.4385,89.0897 46.4385,86.7564 45.5,84.5C 46.2247,80.9686 47.5581,80.302 49.5,82.5C 54.1572,83.7833 58.8238,83.6166 63.5,82C 66.4368,79.0435 69.7701,76.8768 73.5,75.5C 72.6667,75.1667 71.8333,74.8333 71,74.5C 64.0926,75.7189 57.2593,77.0522 50.5,78.5C 50.5,77.1667 49.8333,76.5 48.5,76.5C 48.4754,73.821 47.142,72.4877 44.5,72.5C 47.4083,70.3952 50.7417,69.3952 54.5,69.5C 54.5,68.5 54.5,67.5 54.5,66.5C 53.5,66.5 52.5,66.5 51.5,66.5C 53.9219,64.6358 56.5886,64.1358 59.5,65C 62.1667,63.3333 62.1667,61.6667 59.5,60C 54.2495,60.9524 48.9162,62.1191 43.5,63.5C 43.3505,62.448 43.5172,61.448 44,60.5C 46.8083,58.1789 49.975,56.5122 53.5,55.5C 53.3764,54.8933 53.0431,54.56 52.5,54.5C 54.3332,52.5043 54.8332,50.171 54,47.5C 52.0236,46.1783 50.5236,44.5116 49.5,42.5C 49.2852,40.8212 49.9519,39.8212 51.5,39.5C 54.1667,38.8333 56.8333,38.1667 59.5,37.5 Z"/></g>
<g><path style="opacity:1" fill="#fea36b" d="M 79.5,60.5 C 82.8774,60.9595 86.2107,61.6261 89.5,62.5C 89.853,64.6348 89.0197,65.9681 87,66.5C 83.0747,66.0577 80.5747,64.0577 79.5,60.5 Z"/></g>
<g><path style="opacity:1" fill="#fea871" d="M 87.5,57.5 C 91.7473,57.1941 95.7473,57.8608 99.5,59.5C 99.5,60.8333 99.5,62.1667 99.5,63.5C 95.6578,63.1318 91.9912,62.1318 88.5,60.5C 87.6143,59.675 87.281,58.675 87.5,57.5 Z"/></g>
<g><path style="opacity:1" fill="#ee8b37" d="M 78.5,55.5 C 79.675,55.281 80.675,55.6143 81.5,56.5C 78.0248,58.7658 74.3581,59.4325 70.5,58.5C 73.0923,57.0827 75.759,56.0827 78.5,55.5 Z"/></g>
<g><path style="opacity:1" fill="#fdb07a" d="M 124.5,53.5 C 124.586,54.4959 124.252,55.3292 123.5,56C 118.196,58.201 112.696,59.701 107,60.5C 105.05,60.2926 103.884,59.2926 103.5,57.5C 108.196,58.1791 112.529,57.0124 116.5,54C 119.146,53.5026 121.813,53.3359 124.5,53.5 Z"/></g>
<g><path style="opacity:1" fill="#feaf78" d="M 60.5,43.5 C 63.1982,44.1425 65.8649,44.9758 68.5,46C 69.0585,46.7247 69.3918,47.5581 69.5,48.5C 68.2569,50.6907 67.4236,53.0241 67,55.5C 64.5282,56.1998 62.1949,57.1998 60,58.5C 58.558,57.7875 57.7247,56.6209 57.5,55C 58.6254,53.0374 59.9587,51.204 61.5,49.5C 60.6518,47.5914 60.3184,45.5914 60.5,43.5 Z"/></g>
<g><path style="opacity:1" fill="#ffb57b" d="M 115.5,61.5 C 118.505,63.2766 121.838,64.2766 125.5,64.5C 125.5,65.5 125.5,66.5 125.5,67.5C 123.801,67.3398 122.134,67.5065 120.5,68C 122.451,69.7342 123.451,71.9009 123.5,74.5C 119.276,74.9475 117.609,73.2809 118.5,69.5C 114.861,68.5397 111.195,68.5397 107.5,69.5C 106.876,69.0831 106.543,68.4164 106.5,67.5C 108.243,63.7838 111.243,61.7838 115.5,61.5 Z"/></g>
<g><path style="opacity:1" fill="#fbe3b2" d="M 86.5,68.5 C 90.6282,70.0917 94.9615,71.0917 99.5,71.5C 99.5,72.8333 99.5,74.1667 99.5,75.5C 92.9493,73.9113 86.6159,74.578 80.5,77.5C 79.1667,76.5 79.1667,75.5 80.5,74.5C 82.3817,73.9067 84.2151,73.2401 86,72.5C 86.49,71.2068 86.6567,69.8734 86.5,68.5 Z"/></g>
<g><path style="opacity:1" fill="#fda470" d="M 44.5,72.5 C 47.142,72.4877 48.4754,73.821 48.5,76.5C 45.0284,78.2577 41.3618,78.7577 37.5,78C 36.1398,76.0624 36.4732,74.3957 38.5,73C 40.4727,72.5045 42.4727,72.3379 44.5,72.5 Z"/></g>
<g><path style="opacity:1" fill="#ffc180" d="M 105.5,73.5 C 108.272,73.5952 110.272,74.9285 111.5,77.5C 113.169,76.1103 114.836,75.7769 116.5,76.5C 114.353,78.6632 111.686,79.6632 108.5,79.5C 106.087,78.3202 105.087,76.3202 105.5,73.5 Z"/></g>
<g><path style="opacity:1" fill="#bae3c9" d="M 14.5,36.5 C 17.179,36.5246 18.5123,37.858 18.5,40.5C 19.3339,41.7479 20.6672,42.4146 22.5,42.5C 27.5274,41.7291 32.5274,42.2291 37.5,44C 38.7111,45.1131 38.7111,46.2798 37.5,47.5C 39.204,48.8229 40.5373,48.4896 41.5,46.5C 40.3554,45.109 40.3554,43.7757 41.5,42.5C 43.6431,41.2463 45.6431,41.2463 47.5,42.5C 47.1961,43.1499 46.8627,43.8165 46.5,44.5C 47.2305,47.1092 47.7305,49.7759 48,52.5C 49.049,54.1066 50.549,54.7733 52.5,54.5C 53.0431,54.56 53.3764,54.8933 53.5,55.5C 49.975,56.5122 46.8083,58.1789 44,60.5C 43.5172,61.448 43.3505,62.448 43.5,63.5C 43.33,64.8221 43.6634,65.9887 44.5,67C 46.8848,67.5564 49.2181,67.3897 51.5,66.5C 52.5,66.5 53.5,66.5 54.5,66.5C 54.5,67.5 54.5,68.5 54.5,69.5C 50.7417,69.3952 47.4083,70.3952 44.5,72.5C 42.4727,72.3379 40.4727,72.5045 38.5,73C 36.4732,74.3957 36.1398,76.0624 37.5,78C 41.3618,78.7577 45.0284,78.2577 48.5,76.5C 49.8333,76.5 50.5,77.1667 50.5,78.5C 50.1667,79.8333 49.8333,81.1667 49.5,82.5C 47.5581,80.302 46.2247,80.9686 45.5,84.5C 40.1076,83.8009 34.941,84.8009 30,87.5C 29.51,88.7932 29.3433,90.1266 29.5,91.5C 28.8386,90.2825 28.1719,88.9492 27.5,87.5C 27.1667,87.6667 26.8333,87.8333 26.5,88C 27.1667,90.3333 27.8333,92.6667 28.5,95C 27.8921,95.8699 27.0588,96.3699 26,96.5C 24.3511,95.1023 23.0178,95.4356 22,97.5C 20.2002,95.1693 18.2002,95.1693 16,97.5C 14.6346,96.4071 14.3013,95.0738 15,93.5C 15.7175,94.4506 16.5509,94.6172 17.5,94C 16.2986,93.0975 15.4652,91.9308 15,90.5C 14.6667,91.1667 14.3333,91.8333 14,92.5C 12.9125,90.0684 12.4125,90.4017 12.5,93.5C 9.83333,93.5 7.16667,93.5 4.5,93.5C 5.16667,89.5 3.5,87.8333 -0.5,88.5C -0.5,79.1667 -0.5,69.8333 -0.5,60.5C 3.74637,61.2394 6.41303,59.5727 7.5,55.5C 9.91176,55.3059 10.9118,53.9726 10.5,51.5C 6.74231,51.848 3.07564,52.5147 -0.5,53.5C -0.5,52.8333 -0.5,52.1667 -0.5,51.5C 6.54623,50.3756 13.5462,48.7089 20.5,46.5C 20.2907,45.914 19.9574,45.414 19.5,45C 17.1093,44.7132 14.7759,44.2132 12.5,43.5C 10.5,40.8333 8.16667,38.5 5.5,36.5C 5.16667,37 4.83333,37.5 4.5,38C 5.78271,39.1357 6.78271,40.469 7.5,42C 5.13692,43.9619 2.47025,45.4619 -0.5,46.5C -0.5,42.5 -0.5,38.5 -0.5,34.5C 2.1403,34.4467 4.6403,33.78 7,32.5C 9.65616,33.6838 12.1562,35.0171 14.5,36.5 Z"/></g>
<g><path style="opacity:1" fill="#f6ea9f" d="M 3.5,68.5 C 6.98452,68.6905 10.1512,69.6905 13,71.5C 13.8249,73.7008 13.3249,75.5341 11.5,77C 3.7864,78.7882 1.11973,75.9549 3.5,68.5 Z"/></g>
<g><path style="opacity:1" fill="#f7f1a5" d="M 26.5,64.5 C 27.1667,64.8333 27.8333,65.1667 28.5,65.5C 29.8626,68.6875 29.5292,71.6875 27.5,74.5C 25.9382,74.7329 24.6049,75.3995 23.5,76.5C 20.8708,74.8592 18.8708,72.5259 17.5,69.5C 17.5,68.5 17.5,67.5 17.5,66.5C 20.2153,64.877 23.2153,64.2104 26.5,64.5 Z"/></g>
<g><path style="opacity:1" fill="#f88e7e" d="M 17.5,66.5 C 17.5,67.5 17.5,68.5 17.5,69.5C 15.8333,69.5 14.1667,69.5 12.5,69.5C 12.8526,65.4567 14.8526,63.79 18.5,64.5C 18.1373,65.1835 17.8039,65.8501 17.5,66.5 Z"/></g>
<g><path style="opacity:1" fill="#fb5b4e" d="M 28.5,65.5 C 27.8333,65.1667 27.1667,64.8333 26.5,64.5C 26.33,63.1779 26.6634,62.0113 27.5,61C 29.2182,60.654 30.8849,60.154 32.5,59.5C 32.8333,59.8333 33.1667,60.1667 33.5,60.5C 32.0499,61.8498 31.3832,63.5165 31.5,65.5C 30.5,65.5 29.5,65.5 28.5,65.5 Z"/></g>
<g><path style="opacity:1" fill="#fdc27b" d="M 20.5,50.5 C 25.7074,49.9402 26.7074,51.6069 23.5,55.5C 22.305,53.8794 21.305,52.2128 20.5,50.5 Z"/></g>
<g><path style="opacity:1" fill="#a1ce4f" d="M 27.5,74.5 C 28.5,74.5 29.5,74.5 30.5,74.5C 30.4825,77.5235 29.4825,80.1901 27.5,82.5C 26.1585,80.9951 24.4918,80.3285 22.5,80.5C 22.4326,79.0413 22.7659,77.7079 23.5,76.5C 24.6049,75.3995 25.9382,74.7329 27.5,74.5 Z"/></g>
<g><path style="opacity:1" fill="#feb27e" d="M 49.5,82.5 C 49.8333,81.1667 50.1667,79.8333 50.5,78.5C 57.2593,77.0522 64.0926,75.7189 71,74.5C 71.8333,74.8333 72.6667,75.1667 73.5,75.5C 69.7701,76.8768 66.4368,79.0435 63.5,82C 58.8238,83.6166 54.1572,83.7833 49.5,82.5 Z"/></g>
<g><path style="opacity:1" fill="#fe7947" d="M 159.5,79.5 C 159.5,80.5 159.5,81.5 159.5,82.5C 154.207,81.805 148.874,81.9717 143.5,83C 140.226,84.1222 137.56,85.9555 135.5,88.5C 134.427,87.7494 134.26,86.7494 135,85.5C 142.052,78.8703 150.218,76.8703 159.5,79.5 Z"/></g>
<g><path style="opacity:1" fill="#bce3ca" d="M 159.5,57.5 C 159.5,64.8333 159.5,72.1667 159.5,79.5C 150.218,76.8703 142.052,78.8703 135,85.5C 134.26,86.7494 134.427,87.7494 135.5,88.5C 137.851,90.2029 140.518,90.7029 143.5,90C 148.623,87.3471 153.956,85.1805 159.5,83.5C 159.5,84.8333 159.5,86.1667 159.5,87.5C 158.596,88.209 158.263,89.209 158.5,90.5C 155.266,90.2366 153.932,91.7366 154.5,95C 154.504,98.3365 156.17,99.8365 159.5,99.5C 159.5,119.5 159.5,139.5 159.5,159.5C 147.167,159.5 134.833,159.5 122.5,159.5C 122.5,154.167 122.5,148.833 122.5,143.5C 124.167,143.5 125.833,143.5 127.5,143.5C 129.914,144.933 132.581,145.433 135.5,145C 139.875,142.474 142.875,138.974 144.5,134.5C 141.098,134.658 137.764,134.324 134.5,133.5C 134.826,124.651 134.493,115.984 133.5,107.5C 135.238,101.084 132.904,98.4172 126.5,99.5C 121.957,99.5454 118.123,101.212 115,104.5C 114.517,105.448 114.351,106.448 114.5,107.5C 109.833,107.5 105.167,107.5 100.5,107.5C 100.343,106.127 100.51,104.793 101,103.5C 102.976,102.572 104.809,101.405 106.5,100C 104.793,99.8047 103.126,99.8047 101.5,100C 102.517,98.9505 102.684,97.7839 102,96.5C 101.722,97.4158 101.222,98.0825 100.5,98.5C 100.5,97.5 100.5,96.5 100.5,95.5C 99.1667,95.5 97.8333,95.5 96.5,95.5C 99.3209,94.5831 101.654,92.9164 103.5,90.5C 105.264,91.7122 106.93,91.3788 108.5,89.5C 110.323,90.7472 112.323,91.4139 114.5,91.5C 114.5,90.5 114.5,89.5 114.5,88.5C 114.5,86.1667 114.5,83.8333 114.5,81.5C 112.214,81.405 110.214,80.7384 108.5,79.5C 111.686,79.6632 114.353,78.6632 116.5,76.5C 114.836,75.7769 113.169,76.1103 111.5,77.5C 110.272,74.9285 108.272,73.5952 105.5,73.5C 106.6,72.3951 107.267,71.0618 107.5,69.5C 111.195,68.5397 114.861,68.5397 118.5,69.5C 117.609,73.2809 119.276,74.9475 123.5,74.5C 123.451,71.9009 122.451,69.7342 120.5,68C 122.134,67.5065 123.801,67.3398 125.5,67.5C 125.5,66.5 125.5,65.5 125.5,64.5C 121.838,64.2766 118.505,63.2766 115.5,61.5C 118.807,62.0508 122.14,62.3841 125.5,62.5C 125.263,61.209 125.596,60.209 126.5,59.5C 126.222,61.3464 126.889,62.6798 128.5,63.5C 130.409,62.6518 132.409,62.3184 134.5,62.5C 133.158,63.793 131.491,64.6264 129.5,65C 126.502,68.8178 127.502,70.9845 132.5,71.5C 140.026,71.0164 141.359,68.0164 136.5,62.5C 137.5,62.5 138.5,62.5 139.5,62.5C 140.249,63.531 140.915,64.6976 141.5,66C 145.566,67.6651 149.566,67.3318 153.5,65C 157.12,63.0059 157.453,60.5059 154.5,57.5C 156.234,56.438 157.901,56.438 159.5,57.5 Z"/></g>
<g><path style="opacity:1" fill="#ff8e5c" d="M 128.5,76.5 C 131.881,76.4595 135.214,76.7929 138.5,77.5C 138.5,78.8333 138.5,80.1667 138.5,81.5C 135.393,81.6488 132.393,81.1488 129.5,80C 128.663,78.9887 128.33,77.8221 128.5,76.5 Z"/></g>
<g><path style="opacity:1" fill="#fe9c6c" d="M 149.5,68.5 C 152.313,68.5481 154.979,69.2147 157.5,70.5C 158.583,71.365 158.749,72.365 158,73.5C 153.893,75.7149 149.726,75.8816 145.5,74C 144.549,73.2825 144.383,72.4491 145,71.5C 146.652,70.6006 148.152,69.6006 149.5,68.5 Z"/></g>
<g><path style="opacity:1" fill="#fde7ad" d="M 134.5,62.5 C 135.167,62.5 135.833,62.5 136.5,62.5C 141.359,68.0164 140.026,71.0164 132.5,71.5C 127.502,70.9845 126.502,68.8178 129.5,65C 131.491,64.6264 133.158,63.793 134.5,62.5 Z"/></g>
<g><path style="opacity:1" fill="#feb07c" d="M 83.5,79.5 C 85.1667,79.5 86.8333,79.5 88.5,79.5C 88.2562,82.2626 86.9229,84.4293 84.5,86C 80.2695,87.2899 75.9362,87.7899 71.5,87.5C 71.5,85.5 71.5,83.5 71.5,81.5C 75.7905,81.8023 79.7905,81.1357 83.5,79.5 Z"/></g>
<g><path style="opacity:1" fill="#ffa071" d="M 159.5,82.5 C 159.5,82.8333 159.5,83.1667 159.5,83.5C 153.956,85.1805 148.623,87.3471 143.5,90C 140.518,90.7029 137.851,90.2029 135.5,88.5C 137.56,85.9555 140.226,84.1222 143.5,83C 148.874,81.9717 154.207,81.805 159.5,82.5 Z"/></g>
<g><path style="opacity:1" fill="#f8d0a1" d="M 114.5,88.5 C 114.5,89.5 114.5,90.5 114.5,91.5C 112.323,91.4139 110.323,90.7472 108.5,89.5C 106.93,91.3788 105.264,91.7122 103.5,90.5C 104.234,89.2921 104.567,87.9587 104.5,86.5C 107.33,86.3059 109.996,85.6392 112.5,84.5C 112.64,86.1238 111.973,87.2904 110.5,88C 111.793,88.49 113.127,88.6567 114.5,88.5 Z"/></g>
<g><path style="opacity:1" fill="#fae5b5" d="M 87.5,87.5 C 88.8333,87.5 90.1667,87.5 91.5,87.5C 91.6399,89.1238 90.9733,90.2904 89.5,91C 82.3471,93.761 75.0138,94.5944 67.5,93.5C 74.562,92.4068 81.2286,90.4068 87.5,87.5 Z"/></g>
<g><path style="opacity:1" fill="#e4e69c" d="M 45.5,84.5 C 46.4385,86.7564 46.4385,89.0897 45.5,91.5C 44.5,91.5 43.5,91.5 42.5,91.5C 42.6567,90.1266 42.49,88.7932 42,87.5C 38.9302,86.5076 35.9302,86.8409 33,88.5C 32.8142,90.9005 32.3142,93.2338 31.5,95.5C 30.8281,94.0508 30.1614,92.7175 29.5,91.5C 29.3433,90.1266 29.51,88.7932 30,87.5C 34.941,84.8009 40.1076,83.8009 45.5,84.5 Z"/></g>
<g><path style="opacity:1" fill="#fe8a56" d="M 114.5,91.5 C 118.112,90.4886 121.779,90.3219 125.5,91C 129.578,94.0883 129.078,96.5883 124,98.5C 121.224,97.1952 118.39,96.0285 115.5,95C 114.663,93.9887 114.33,92.8221 114.5,91.5 Z"/></g>
<g><path style="opacity:1" fill="#fe9167" d="M 50.5,91.5 C 56.1581,90.6794 57.8248,92.846 55.5,98C 52.9009,98.769 50.4009,98.6023 48,97.5C 47.0339,94.6603 47.8672,92.6603 50.5,91.5 Z"/></g>
<g><path style="opacity:1" fill="#fab883" d="M 6.5,94.5 C 10.1378,93.7366 11.6378,95.0699 11,98.5C 6.41546,100.413 4.91546,99.0793 6.5,94.5 Z"/></g>
<g><path style="opacity:1" fill="#f8e474" d="M 96.5,95.5 C 97.8333,95.5 99.1667,95.5 100.5,95.5C 100.5,96.5 100.5,97.5 100.5,98.5C 97.528,100.65 94.1947,101.65 90.5,101.5C 90.6173,97.7507 92.6173,95.7507 96.5,95.5 Z"/></g>
<g><path style="opacity:1" fill="#fbbe92" d="M 159.5,87.5 C 159.5,91.5 159.5,95.5 159.5,99.5C 156.17,99.8365 154.504,98.3365 154.5,95C 153.932,91.7366 155.266,90.2366 158.5,90.5C 158.263,89.209 158.596,88.209 159.5,87.5 Z"/></g>
<g><path style="opacity:1" fill="#fdda84" d="M 83.5,99.5 C 87.1378,98.7366 88.6378,100.07 88,103.5C 84.7583,105.519 81.2583,106.352 77.5,106C 76.5494,105.282 76.3828,104.449 77,103.5C 79.3143,102.267 81.4809,100.933 83.5,99.5 Z"/></g>
<g><path style="opacity:1" fill="#fdb588" d="M 144.5,95.5 C 146.792,95.2436 148.959,95.5769 151,96.5C 151.43,99.1922 151.263,101.859 150.5,104.5C 147.784,104.322 145.117,103.822 142.5,103C 141.62,101.644 141.286,100.144 141.5,98.5C 142.5,98.5 143.5,98.5 144.5,98.5C 144.5,97.5 144.5,96.5 144.5,95.5 Z"/></g>
<g><path style="opacity:1" fill="#fc8d77" d="M 68.5,97.5 C 70.0281,97.5173 70.5281,98.184 70,99.5C 66.5202,104.248 62.0202,105.582 56.5,103.5C 60.0964,100.609 64.0964,98.6091 68.5,97.5 Z"/></g>
<g><path style="opacity:1" fill="#fdd15c" d="M 17.5,98.5 C 19.6877,99.5357 19.6877,101.036 17.5,103C 14.2467,104.656 10.9133,104.823 7.5,103.5C 11.0719,102.125 14.4052,100.459 17.5,98.5 Z"/></g>
<g><path style="opacity:1" fill="#fda877" d="M 39.5,96.5 C 41.6449,96.7377 43.3115,97.7377 44.5,99.5C 42.7334,101.89 40.4001,103.557 37.5,104.5C 36.1667,103.833 35.1667,102.833 34.5,101.5C 36.0063,99.5986 37.6729,97.9319 39.5,96.5 Z"/></g>
<g><path style="opacity:1" fill="#fdd5a4" d="M 133.5,107.5 C 127.167,107.5 120.833,107.5 114.5,107.5C 114.351,106.448 114.517,105.448 115,104.5C 118.123,101.212 121.957,99.5454 126.5,99.5C 132.904,98.4172 135.238,101.084 133.5,107.5 Z"/></g>
<g><path style="opacity:1" fill="#fe8b78" d="M 51.5,107.5 C 48.5,107.5 45.5,107.5 42.5,107.5C 43.7679,105.613 45.6013,104.613 48,104.5C 50.2747,104.278 51.4413,105.278 51.5,107.5 Z"/></g>
<g><path style="opacity:1" fill="#46c921" d="M 100.5,107.5 C 105.167,107.5 109.833,107.5 114.5,107.5C 120.833,107.5 127.167,107.5 133.5,107.5C 134.493,115.984 134.826,124.651 134.5,133.5C 134.5,136.833 134.5,140.167 134.5,143.5C 132.167,143.5 129.833,143.5 127.5,143.5C 125.833,143.5 124.167,143.5 122.5,143.5C 122.5,140.833 122.5,138.167 122.5,135.5C 93.5,135.5 64.5,135.5 35.5,135.5C 35.5,138.167 35.5,140.833 35.5,143.5C 31.8333,143.5 28.1667,143.5 24.5,143.5C 24.5,140.833 24.5,138.167 24.5,135.5C 24.5,129.833 24.5,124.167 24.5,118.5C 24.5,116.833 24.5,115.167 24.5,113.5C 24.5,111.5 24.5,109.5 24.5,107.5C 30.5,107.5 36.5,107.5 42.5,107.5C 45.5,107.5 48.5,107.5 51.5,107.5C 58.1107,107.861 64.6107,107.194 71,105.5C 80.7385,107.313 90.5718,107.98 100.5,107.5 Z"/></g>
<g><path style="opacity:1" fill="#fefefe" d="M 52.5,110.5 C 60.5791,110.391 63.4124,114.058 61,121.5C 58.5,124 56,126.5 53.5,129C 56.4816,129.498 59.4816,129.665 62.5,129.5C 62.5,130.833 62.5,132.167 62.5,133.5C 57.1563,133.666 51.8229,133.499 46.5,133C 47.2546,130.825 48.088,128.659 49,126.5C 52.7223,124.279 55.5556,121.279 57.5,117.5C 55.3865,113.675 53.0532,113.675 50.5,117.5C 48.9984,116.917 47.6651,116.084 46.5,115C 48.3893,113.236 50.3893,111.736 52.5,110.5 Z"/></g>
<g><path style="opacity:1" fill="#fefefe" d="M 70.5,110.5 C 78.8321,110.461 81.4988,114.128 78.5,121.5C 82.7847,126.156 82.118,129.989 76.5,133C 70.5598,134.697 66.5598,132.697 64.5,127C 65.0831,124.501 66.4164,122.501 68.5,121C 65.9201,119.519 65.0868,117.352 66,114.5C 67.3968,112.93 68.8968,111.596 70.5,110.5 Z"/></g>
<g><path style="opacity:1" fill="#fefefe" d="M 93.5,110.5 C 100.346,111.181 104.012,115.014 104.5,122C 103.388,131.474 98.3878,134.807 89.5,132C 84.1291,126.813 83.2958,120.979 87,114.5C 88.7918,112.372 90.9584,111.039 93.5,110.5 Z"/></g>
<g><path style="opacity:1" fill="#fc8a72" d="M 24.5,113.5 C 24.5,115.167 24.5,116.833 24.5,118.5C 23.391,118.557 22.391,118.89 21.5,119.5C 20.5489,118.081 20.2155,116.415 20.5,114.5C 21.9587,114.567 23.2921,114.234 24.5,113.5 Z"/></g>
<g><path style="opacity:1" fill="#46ca20" d="M 71.5,114.5 C 75.1612,114.35 76.1612,115.85 74.5,119C 70.7071,119.487 69.7071,117.987 71.5,114.5 Z"/></g>
<g><path style="opacity:1" fill="#46c920" d="M 93.5,114.5 C 97.7402,115.126 99.7402,117.626 99.5,122C 99.2294,128.37 96.3961,130.204 91,127.5C 88.4668,122.351 89.3001,118.018 93.5,114.5 Z"/></g>
<g><path style="opacity:1" fill="#fefefe" d="M 111.5,116.5 C 112.833,116.5 114.167,116.5 115.5,116.5C 115.5,118.5 115.5,120.5 115.5,122.5C 117.167,122.5 118.833,122.5 120.5,122.5C 120.5,123.833 120.5,125.167 120.5,126.5C 118.833,126.5 117.167,126.5 115.5,126.5C 115.5,128.167 115.5,129.833 115.5,131.5C 114.167,131.5 112.833,131.5 111.5,131.5C 111.5,129.833 111.5,128.167 111.5,126.5C 109.833,126.5 108.167,126.5 106.5,126.5C 106.5,125.167 106.5,123.833 106.5,122.5C 108.167,122.5 109.833,122.5 111.5,122.5C 111.5,120.5 111.5,118.5 111.5,116.5 Z"/></g>
<g><path style="opacity:1" fill="#fdddae" d="M 149.5,113.5 C 151.679,113.84 153.512,114.84 155,116.5C 155.507,117.996 155.007,119.163 153.5,120C 148.69,123.384 143.524,124.217 138,122.5C 138.546,119.907 140.046,117.74 142.5,116C 145.104,115.61 147.438,114.776 149.5,113.5 Z"/></g>
<g><path style="opacity:1" fill="#46ca20" d="M 70.5,123.5 C 75.1225,122.408 76.9558,124.075 76,128.5C 70.4205,130.752 68.5871,129.085 70.5,123.5 Z"/></g>
<g><path style="opacity:1" fill="#fa9472" d="M -0.5,127.5 C -0.5,126.833 -0.5,126.167 -0.5,125.5C 1.33073,124.948 2.9974,124.948 4.5,125.5C 3.33152,127.217 1.66485,127.884 -0.5,127.5 Z"/></g>
<g><path style="opacity:1" fill="#b5e2c8" d="M 21.5,119.5 C 22.391,118.89 23.391,118.557 24.5,118.5C 24.5,124.167 24.5,129.833 24.5,135.5C 20.6367,136.694 17.6367,139.027 15.5,142.5C 18.1184,146.1 21.1184,146.433 24.5,143.5C 28.1667,143.5 31.8333,143.5 35.5,143.5C 35.5,148.833 35.5,154.167 35.5,159.5C 23.5,159.5 11.5,159.5 -0.5,159.5C -0.5,148.833 -0.5,138.167 -0.5,127.5C 1.66485,127.884 3.33152,127.217 4.5,125.5C 2.9974,124.948 1.33073,124.948 -0.5,125.5C -0.5,120.167 -0.5,114.833 -0.5,109.5C 2.08382,108.952 3.08382,107.285 2.5,104.5C 4.83093,104.498 6.83093,105.331 8.5,107C 7.16686,108.84 7.33353,109.34 9,108.5C 9.40174,109.872 9.90174,111.205 10.5,112.5C 15.855,113.185 18.1883,116.185 17.5,121.5C 19.3797,121.771 20.713,121.104 21.5,119.5 Z"/></g>
<g><path style="opacity:1" fill="#f9a37b" d="M 9.5,119.5 C 10.5,119.5 11.5,119.5 12.5,119.5C 12.9899,121.948 12.1566,123.615 10,124.5C 6.92809,123.119 6.76143,121.452 9.5,119.5 Z"/></g>
<g><path style="opacity:1" fill="#575111" d="M 14.5,123.5 C 21.0001,122.499 23.5001,125.165 22,131.5C 17.734,133.811 13.234,135.311 8.5,136C 6.6751,134.534 6.1751,132.701 7,130.5C 9.39587,127.933 11.8959,125.6 14.5,123.5 Z"/></g>
<g><path style="opacity:1" fill="#d528b3" d="M 122.5,143.5 C 122.5,148.833 122.5,154.167 122.5,159.5C 93.5,159.5 64.5,159.5 35.5,159.5C 35.5,154.167 35.5,148.833 35.5,143.5C 35.5,140.833 35.5,138.167 35.5,135.5C 64.5,135.5 93.5,135.5 122.5,135.5C 122.5,138.167 122.5,140.833 122.5,143.5 Z"/></g>
<g><path style="opacity:1" fill="#fcf2c2" d="M 134.5,133.5 C 137.764,134.324 141.098,134.658 144.5,134.5C 142.875,138.974 139.875,142.474 135.5,145C 132.581,145.433 129.914,144.933 127.5,143.5C 129.833,143.5 132.167,143.5 134.5,143.5C 134.5,140.167 134.5,136.833 134.5,133.5 Z"/></g>
<g><path style="opacity:1" fill="#e6d787" d="M 24.5,135.5 C 24.5,138.167 24.5,140.833 24.5,143.5C 21.1184,146.433 18.1184,146.1 15.5,142.5C 17.6367,139.027 20.6367,136.694 24.5,135.5 Z"/></g>
<g><path style="opacity:1" fill="#fefefe" d="M 49.5,141.5 C 52.8333,141.5 56.1667,141.5 59.5,141.5C 59.5,142.5 59.5,143.5 59.5,144.5C 57.1667,144.5 54.8333,144.5 52.5,144.5C 52.5,145.5 52.5,146.5 52.5,147.5C 54.5,147.5 56.5,147.5 58.5,147.5C 58.5,148.5 58.5,149.5 58.5,150.5C 56.5,150.5 54.5,150.5 52.5,150.5C 52.5,152.167 52.5,153.833 52.5,155.5C 51.5,155.5 50.5,155.5 49.5,155.5C 49.5,150.833 49.5,146.167 49.5,141.5 Z"/></g>
<g><path style="opacity:1" fill="#fefefe" d="M 66.5,141.5 C 74.5581,141.373 77.3915,145.04 75,152.5C 69.8787,156.875 65.5454,156.209 62,150.5C 61.3772,146.412 62.8772,143.412 66.5,141.5 Z"/></g>
<g><path style="opacity:1" fill="#fefefe" d="M 83.5,141.5 C 91.5581,141.373 94.3915,145.04 92,152.5C 86.8787,156.875 82.5454,156.209 79,150.5C 78.3772,146.412 79.8772,143.412 83.5,141.5 Z"/></g>
<g><path style="opacity:1" fill="#fefefe" d="M 96.5,141.5 C 102.979,139.784 106.979,142.117 108.5,148.5C 106.979,154.883 102.979,157.216 96.5,155.5C 96.5,150.833 96.5,146.167 96.5,141.5 Z"/></g>
<g><path style="opacity:1" fill="#d626b4" d="M 66.5,144.5 C 73.004,144.138 74.6707,146.638 71.5,152C 64.745,152.756 63.0783,150.256 66.5,144.5 Z"/></g>
<g><path style="opacity:1" fill="#d627b3" d="M 83.5,144.5 C 90.004,144.138 91.6707,146.638 88.5,152C 81.745,152.756 80.0783,150.256 83.5,144.5 Z"/></g>
<g><path style="opacity:1" fill="#d627b3" d="M 99.5,144.5 C 105.488,144.664 106.821,147.164 103.5,152C 102.207,152.49 100.873,152.657 99.5,152.5C 99.5,149.833 99.5,147.167 99.5,144.5 Z"/></g>
</svg>
